<?xml version="1.0" encoding="UTF-8" standalone="no"?><svg xmlns="http://www.w3.org/2000/svg" xmlns:xlink="http://www.w3.org/1999/xlink" contentScriptType="application/ecmascript" contentStyleType="text/css" height="691px" preserveAspectRatio="none" style="width:665px;height:691px;background:#FFFFFF;" version="1.1" viewBox="0 0 665 691" width="665px" zoomAndPan="magnify"><defs><filter height="300%" id="fbzs22popve00" width="300%" x="-1" y="-1"><feGaussianBlur result="blurOut" stdDeviation="2.0"/><feColorMatrix in="blurOut" result="blurOut2" type="matrix" values="0 0 0 0 0 0 0 0 0 0 0 0 0 0 0 0 0 0 .4 0"/><feOffset dx="4.0" dy="4.0" in="blurOut2" result="blurOut3"/><feBlend in="SourceGraphic" in2="blurOut3" mode="normal"/></filter></defs><g><!--MD5=[df7361f55a7521c1550419bc0b592907]
cluster md.processor--><polygon fill="#FFFFFF" filter="url(#fbzs22popve00)" points="16,6,118,6,125,28.4883,648,28.4883,648,684,16,684,16,6" style="stroke:#000000;stroke-width:1.5;"/><line style="stroke:#000000;stroke-width:1.5;" x1="16" x2="125" y1="28.4883" y2="28.4883"/><text fill="#000000" font-family="sans-serif" font-size="14" font-weight="bold" lengthAdjust="spacing" textLength="96" x="20" y="21.5352">md.processor</text><!--MD5=[6ca9a1dad383be040887fc375fc65c60]
cluster md.processor.threading--><polygon fill="#FFFFFF" filter="url(#fbzs22popve00)" points="344,55.5,518,55.5,525,77.9883,624,77.9883,624,180.5,344,180.5,344,55.5" style="stroke:#000000;stroke-width:1.5;"/><line style="stroke:#000000;stroke-width:1.5;" x1="344" x2="525" y1="77.9883" y2="77.9883"/><text fill="#000000" font-family="sans-serif" font-size="14" font-weight="bold" lengthAdjust="spacing" textLength="168" x="348" y="71.0352">md.processor.threading</text><!--MD5=[a72269d45b5298d73b3864af7e46b657]
cluster md.processor.throttle--><polygon fill="#FFFFFF" filter="url(#fbzs22popve00)" points="40,49,200,49,207,71.4883,320,71.4883,320,187,40,187,40,49" style="stroke:#000000;stroke-width:1.5;"/><line style="stroke:#000000;stroke-width:1.5;" x1="40" x2="207" y1="71.4883" y2="71.4883"/><text fill="#000000" font-family="sans-serif" font-size="14" font-weight="bold" lengthAdjust="spacing" textLength="154" x="44" y="64.5352">md.processor.throttle</text><!--MD5=[6925c9bba1c7591ab5682a9e31ae0064]
class md.processor.ProviderInterface--><rect codeLine="32" fill="#EBEBEB" filter="url(#fbzs22popve00)" height="60.9551" id="md.processor.ProviderInterface" style="stroke:#333333;stroke-width:1.5;" width="246" x="248" y="378"/><ellipse cx="317.75" cy="394" fill="#B4A7E5" rx="11" ry="11" style="stroke:#333333;stroke-width:1.0;"/><path d="M314.1777,390.2651 L314.1777,388.1069 L321.5571,388.1069 L321.5571,390.2651 L319.0918,390.2651 L319.0918,398.3418 L321.5571,398.3418 L321.5571,400.5 L314.1777,400.5 L314.1777,398.3418 L316.6431,398.3418 L316.6431,390.2651 Z " fill="#000000"/><text fill="#000000" font-family="sans-serif" font-size="12" font-style="italic" lengthAdjust="spacing" textLength="98" x="338.25" y="398.5352">ProviderInterface</text><line style="stroke:#333333;stroke-width:1.5;" x1="249" x2="493" y1="410" y2="410"/><line style="stroke:#333333;stroke-width:1.5;" x1="249" x2="493" y1="418" y2="418"/><ellipse cx="259" cy="429" fill="#84BE84" rx="3" ry="3" style="stroke:#038048;stroke-width:1.0;"/><text fill="#000000" font-family="sans-serif" font-size="11" lengthAdjust="spacing" textLength="220" x="268" y="432.6348">provide() -&gt; md.processor.TaskInterface</text><!--MD5=[aedda8309b642916063e27551e389dbb]
class md.processor.TaskInterface--><rect codeLine="31" fill="#EBEBEB" filter="url(#fbzs22popve00)" height="48" id="md.processor.TaskInterface" style="stroke:#333333;stroke-width:1.5;" width="110" x="264" y="499"/><ellipse cx="279" cy="515" fill="#B4A7E5" rx="11" ry="11" style="stroke:#333333;stroke-width:1.0;"/><path d="M275.4277,511.2651 L275.4277,509.1069 L282.8071,509.1069 L282.8071,511.2651 L280.3418,511.2651 L280.3418,519.3418 L282.8071,519.3418 L282.8071,521.5 L275.4277,521.5 L275.4277,519.3418 L277.8931,519.3418 L277.8931,511.2651 Z " fill="#000000"/><text fill="#000000" font-family="sans-serif" font-size="12" font-style="italic" lengthAdjust="spacing" textLength="78" x="293" y="519.5352">TaskInterface</text><line style="stroke:#333333;stroke-width:1.5;" x1="265" x2="373" y1="531" y2="531"/><line style="stroke:#333333;stroke-width:1.5;" x1="265" x2="373" y1="539" y2="539"/><!--MD5=[73cf8c2f0bfa2f019e60a21e4bea6df6]
class md.processor.ProcessorInterface--><rect codeLine="36" fill="#EBEBEB" filter="url(#fbzs22popve00)" height="60.9551" id="md.processor.ProcessorInterface" style="stroke:#333333;stroke-width:1.5;" width="302" x="103" y="607"/><ellipse cx="196.75" cy="623" fill="#B4A7E5" rx="11" ry="11" style="stroke:#333333;stroke-width:1.0;"/><path d="M193.1777,619.2651 L193.1777,617.1069 L200.5571,617.1069 L200.5571,619.2651 L198.0918,619.2651 L198.0918,627.3418 L200.5571,627.3418 L200.5571,629.5 L193.1777,629.5 L193.1777,627.3418 L195.6431,627.3418 L195.6431,619.2651 Z " fill="#000000"/><text fill="#000000" font-family="sans-serif" font-size="12" font-style="italic" lengthAdjust="spacing" textLength="106" x="217.25" y="627.5352">ProcessorInterface</text><line style="stroke:#333333;stroke-width:1.5;" x1="104" x2="404" y1="639" y2="639"/><line style="stroke:#333333;stroke-width:1.5;" x1="104" x2="404" y1="647" y2="647"/><ellipse cx="114" cy="658" fill="#84BE84" rx="3" ry="3" style="stroke:#038048;stroke-width:1.0;"/><text fill="#000000" font-family="sans-serif" font-size="11" lengthAdjust="spacing" textLength="276" x="123" y="661.6348">provide(task: md.processor.TaskInterface) -&gt; None</text><!--MD5=[b504937b46242caef2bd1f0896fc78c4]
class md.processor.Worker--><rect codeLine="43" fill="#EBEBEB" filter="url(#fbzs22popve00)" height="86.8652" id="md.processor.Worker" style="stroke:#333333;stroke-width:1.5;" width="266" x="51" y="231"/><ellipse cx="159.25" cy="247" fill="#ADD1B2" rx="11" ry="11" style="stroke:#333333;stroke-width:1.0;"/><path d="M161.7231,253.1431 Q161.1421,253.4419 160.5029,253.5913 Q159.8638,253.7407 159.1582,253.7407 Q156.6514,253.7407 155.3315,252.0889 Q154.0117,250.437 154.0117,247.3159 Q154.0117,244.1865 155.3315,242.5347 Q156.6514,240.8828 159.1582,240.8828 Q159.8638,240.8828 160.5112,241.0322 Q161.1587,241.1816 161.7231,241.4805 L161.7231,244.2031 Q161.0923,243.6221 160.4988,243.3523 Q159.9053,243.0825 159.2744,243.0825 Q157.9297,243.0825 157.2449,244.1492 Q156.5601,245.2158 156.5601,247.3159 Q156.5601,249.4077 157.2449,250.4744 Q157.9297,251.541 159.2744,251.541 Q159.9053,251.541 160.4988,251.2712 Q161.0923,251.0015 161.7231,250.4204 Z " fill="#000000"/><text fill="#000000" font-family="sans-serif" font-size="12" lengthAdjust="spacing" textLength="41" x="179.75" y="251.5352">Worker</text><line style="stroke:#333333;stroke-width:1.5;" x1="52" x2="316" y1="263" y2="263"/><rect fill="none" height="6" style="stroke:#C82930;stroke-width:1.0;" width="6" x="59" y="271"/><text fill="#000000" font-family="sans-serif" font-size="11" lengthAdjust="spacing" textLength="222" x="71" y="277.6348">provider: md.processor.ProviderInterface</text><rect fill="none" height="6" style="stroke:#C82930;stroke-width:1.0;" width="6" x="59" y="283.9551"/><text fill="#000000" font-family="sans-serif" font-size="11" lengthAdjust="spacing" textLength="240" x="71" y="290.5898">processor: md.processor.ProcessorInterface</text><line style="stroke:#333333;stroke-width:1.5;" x1="52" x2="316" y1="296.9102" y2="296.9102"/><ellipse cx="62" cy="307.9102" fill="#84BE84" rx="3" ry="3" style="stroke:#038048;stroke-width:1.0;"/><text fill="#000000" font-family="sans-serif" font-size="11" lengthAdjust="spacing" textLength="76" x="71" y="311.5449">run() -&gt; None</text><!--MD5=[4b41c7159238ceb9b9fcb56ba60bdc8a]
class md.processor.threading.Provider--><rect codeLine="12" fill="#EBEBEB" filter="url(#fbzs22popve00)" height="73.9102" id="md.processor.threading.Provider" style="stroke:#333333;stroke-width:1.5;" width="248" x="360" y="90.5"/><ellipse cx="455.75" cy="106.5" fill="#ADD1B2" rx="11" ry="11" style="stroke:#333333;stroke-width:1.0;"/><path d="M458.2231,112.6431 Q457.6421,112.9419 457.0029,113.0913 Q456.3638,113.2407 455.6582,113.2407 Q453.1514,113.2407 451.8315,111.5889 Q450.5117,109.937 450.5117,106.8159 Q450.5117,103.6865 451.8315,102.0347 Q453.1514,100.3828 455.6582,100.3828 Q456.3638,100.3828 457.0112,100.5322 Q457.6587,100.6816 458.2231,100.9805 L458.2231,103.7031 Q457.5923,103.1221 456.9988,102.8523 Q456.4053,102.5825 455.7744,102.5825 Q454.4297,102.5825 453.7449,103.6492 Q453.0601,104.7158 453.0601,106.8159 Q453.0601,108.9077 453.7449,109.9744 Q454.4297,111.041 455.7744,111.041 Q456.4053,111.041 456.9988,110.7712 Q457.5923,110.5015 458.2231,109.9204 Z " fill="#000000"/><text fill="#000000" font-family="sans-serif" font-size="12" lengthAdjust="spacing" textLength="48" x="476.25" y="111.0352">Provider</text><line style="stroke:#333333;stroke-width:1.5;" x1="361" x2="607" y1="122.5" y2="122.5"/><rect fill="none" height="6" style="stroke:#C82930;stroke-width:1.0;" width="6" x="368" y="130.5"/><text fill="#000000" font-family="sans-serif" font-size="11" lengthAdjust="spacing" textLength="222" x="380" y="137.1348">provider: md.processor.ProviderInterface</text><line style="stroke:#333333;stroke-width:1.0;" x1="361" x2="607" y1="143.4551" y2="143.4551"/><ellipse cx="371" cy="154.4551" fill="#84BE84" rx="3" ry="3" style="stroke:#038048;stroke-width:1.0;"/><text fill="#000000" font-family="sans-serif" font-size="11" lengthAdjust="spacing" textLength="220" x="380" y="158.0898">provide() -&gt; md.processor.TaskInterface</text><!--MD5=[6113da753be24caf0dfb4d849cc6dbc1]
class md.processor.throttle.Provider--><rect codeLine="22" fill="#EBEBEB" filter="url(#fbzs22popve00)" height="86.8652" id="md.processor.throttle.Provider" style="stroke:#333333;stroke-width:1.5;" width="248" x="56" y="84"/><ellipse cx="151.75" cy="100" fill="#ADD1B2" rx="11" ry="11" style="stroke:#333333;stroke-width:1.0;"/><path d="M154.2231,106.1431 Q153.6421,106.4419 153.0029,106.5913 Q152.3638,106.7407 151.6582,106.7407 Q149.1514,106.7407 147.8315,105.0889 Q146.5117,103.437 146.5117,100.3159 Q146.5117,97.1865 147.8315,95.5347 Q149.1514,93.8828 151.6582,93.8828 Q152.3638,93.8828 153.0112,94.0322 Q153.6587,94.1816 154.2231,94.4805 L154.2231,97.2031 Q153.5923,96.6221 152.9988,96.3523 Q152.4053,96.0825 151.7744,96.0825 Q150.4297,96.0825 149.7449,97.1492 Q149.0601,98.2158 149.0601,100.3159 Q149.0601,102.4077 149.7449,103.4744 Q150.4297,104.541 151.7744,104.541 Q152.4053,104.541 152.9988,104.2712 Q153.5923,104.0015 154.2231,103.4204 Z " fill="#000000"/><text fill="#000000" font-family="sans-serif" font-size="12" lengthAdjust="spacing" textLength="48" x="172.25" y="104.5352">Provider</text><line style="stroke:#333333;stroke-width:1.5;" x1="57" x2="303" y1="116" y2="116"/><rect fill="none" height="6" style="stroke:#C82930;stroke-width:1.0;" width="6" x="64" y="124"/><text fill="#000000" font-family="sans-serif" font-size="11" lengthAdjust="spacing" textLength="222" x="76" y="130.6348">provider: md.processor.ProviderInterface</text><rect fill="none" height="6" style="stroke:#C82930;stroke-width:1.0;" width="6" x="64" y="136.9551"/><text fill="#000000" font-family="sans-serif" font-size="11" lengthAdjust="spacing" textLength="51" x="76" y="143.5898">rate: float</text><line style="stroke:#333333;stroke-width:1.5;" x1="57" x2="303" y1="149.9102" y2="149.9102"/><ellipse cx="67" cy="160.9102" fill="#84BE84" rx="3" ry="3" style="stroke:#038048;stroke-width:1.0;"/><text fill="#000000" font-family="sans-serif" font-size="11" lengthAdjust="spacing" textLength="151" x="76" y="164.5449">set_rate(rate: float) -&gt; None</text><!--MD5=[cacab9aa265fd2904d13d820ea854a2f]
reverse link md.processor.ProviderInterface to md.processor.threading.Provider--><path d="M449.33,357.89 C449.33,357.89 449.33,164.73 449.33,164.73 " fill="none" id="md.processor.ProviderInterface-backto-md.processor.threading.Provider" style="stroke:#333333;stroke-width:1.0;stroke-dasharray:7.0,7.0;"/><polygon fill="none" points="456.33,357.89,449.33,377.89,442.33,357.89,456.33,357.89" style="stroke:#333333;stroke-width:1.0;"/><!--MD5=[94b2a4676323e0477859efa15d382d70]
link md.processor.threading.Provider to md.processor.ProviderInterface--><path codeLine="18" d="M404.67,176.52 C404.67,176.52 404.67,364.86 404.67,364.86 " fill="none" id="md.processor.threading.Provider-md.processor.ProviderInterface" style="stroke:#333333;stroke-width:1.0;"/><polygon fill="#333333" points="404.67,377.86,408.67,368.86,404.67,372.86,400.67,368.86,404.67,377.86" style="stroke:#333333;stroke-width:1.0;"/><line style="stroke:#333333;stroke-width:1.0;" x1="404.67" x2="404.67" y1="372.86" y2="364.86"/><polygon fill="#333333" points="404.67,164.52,400.67,170.52,404.67,176.52,408.67,170.52,404.67,164.52" style="stroke:#333333;stroke-width:1.0;"/><!--MD5=[620d8beccea00ce2d14231ac29c29bfb]
reverse link md.processor.ProviderInterface to md.processor.throttle.Provider--><path d="M331.33,357.96 C331.33,357.96 331.33,140 331.33,140 C331.33,140 320.34,140 304.28,140 " fill="none" id="md.processor.ProviderInterface-backto-md.processor.throttle.Provider" style="stroke:#333333;stroke-width:1.0;stroke-dasharray:7.0,7.0;"/><polygon fill="none" points="338.33,357.96,331.33,377.96,324.33,357.96,338.33,357.96" style="stroke:#333333;stroke-width:1.0;"/><!--MD5=[fd7b95999d9e881fd96a7fd87ac72c0c]
link md.processor.throttle.Provider to md.processor.ProviderInterface--><path codeLine="28" d="M316.29,116 C316.29,116 345.67,116 345.67,116 C345.67,116 345.67,364.75 345.67,364.75 " fill="none" id="md.processor.throttle.Provider-md.processor.ProviderInterface" style="stroke:#333333;stroke-width:1.0;"/><polygon fill="#333333" points="345.67,377.75,349.67,368.75,345.67,372.75,341.67,368.75,345.67,377.75" style="stroke:#333333;stroke-width:1.0;"/><line style="stroke:#333333;stroke-width:1.0;" x1="345.67" x2="345.67" y1="372.75" y2="364.75"/><polygon fill="#333333" points="304.29,116,310.29,120,316.29,116,310.29,112,304.29,116" style="stroke:#333333;stroke-width:1.0;"/><!--MD5=[a22168cb5de9c9b1977e4cd715765e2f]
link md.processor.ProviderInterface to md.processor.TaskInterface--><path codeLine="40" d="M319,439.18 C319,457.86 319,481.39 319,498.76 " fill="none" id="md.processor.ProviderInterface-md.processor.TaskInterface" style="stroke:#333333;stroke-width:1.0;"/><polygon fill="#000000" points="255,465.6253,257.9389,456.5802,252.0611,456.5802,255,465.6253" style="stroke:#000000;stroke-width:1.0;"/><text fill="#000000" font-family="sans-serif" font-size="13" lengthAdjust="spacing" textLength="54" x="264" y="465.5384">provides</text><!--MD5=[5ab3e71e13a80afa6cb863cf89166d88]
link md.processor.TaskInterface to md.processor.ProcessorInterface--><path codeLine="41" d="M319,547 C319,564.45 319,588.19 319,606.98 " fill="none" id="md.processor.TaskInterface-md.processor.ProcessorInterface" style="stroke:#333333;stroke-width:1.0;"/><polygon fill="#000000" points="246,563.6453,243.0611,572.6904,248.9389,572.6904,246,563.6453" style="stroke:#000000;stroke-width:1.0;"/><text fill="#000000" font-family="sans-serif" font-size="13" lengthAdjust="spacing" textLength="63" x="255" y="573.5584">processes</text><!--MD5=[e6c3ec99a99be5e56802a1a417ef3412]
link md.processor.Worker to md.processor.ProviderInterface--><path codeLine="49" d="M282.5,330.01 C282.5,330.01 282.5,364.93 282.5,364.93 " fill="none" id="md.processor.Worker-md.processor.ProviderInterface" style="stroke:#333333;stroke-width:1.0;"/><polygon fill="#333333" points="282.5,377.93,286.5,368.93,282.5,372.93,278.5,368.93,282.5,377.93" style="stroke:#333333;stroke-width:1.0;"/><line style="stroke:#333333;stroke-width:1.0;" x1="282.5" x2="282.5" y1="372.93" y2="364.93"/><polygon fill="#333333" points="282.5,318.01,278.5,324.01,282.5,330.01,286.5,324.01,282.5,318.01" style="stroke:#333333;stroke-width:1.0;"/><!--MD5=[f8b60c00991b3a93a19893e700bf4556]
link md.processor.Worker to md.processor.ProcessorInterface--><path codeLine="50" d="M175.5,330.29 C175.5,330.29 175.5,593.78 175.5,593.78 " fill="none" id="md.processor.Worker-md.processor.ProcessorInterface" style="stroke:#333333;stroke-width:1.0;"/><polygon fill="#333333" points="175.5,606.78,179.5,597.78,175.5,601.78,171.5,597.78,175.5,606.78" style="stroke:#333333;stroke-width:1.0;"/><line style="stroke:#333333;stroke-width:1.0;" x1="175.5" x2="175.5" y1="601.78" y2="593.78"/><polygon fill="#333333" points="175.5,318.29,171.5,324.29,175.5,330.29,179.5,324.29,175.5,318.29" style="stroke:#333333;stroke-width:1.0;"/><!--MD5=[87fe060a19f7f02643b7fcebf1def93c]
@startuml

skinparam class {
  BackgroundColor #ebebeb
  ArrowColor      #333
  BorderColor     #333
}

skinparam lineType ortho

package md.processor {
  package md.processor.threading {
    class md.processor.threading.Provider implements md.processor.ProviderInterface {
      - provider: md.processor.ProviderInterface
      - - -
      + provide() -> md.processor.TaskInterface
    }

    md.processor.threading.Provider *- - -> md.processor.ProviderInterface
  }

  package md.processor.throttle {
    class md.processor.throttle.Provider implements md.processor.ProviderInterface {
      - provider: md.processor.ProviderInterface
      - rate: float
      + set_rate(rate: float) -> None
    }

    md.processor.throttle.Provider *- - -> md.processor.ProviderInterface
  }

  interface md.processor.TaskInterface {}
  interface md.processor.ProviderInterface {
    + provide() -> md.processor.TaskInterface
  }

  interface md.processor.ProcessorInterface {
    + provide(task: md.processor.TaskInterface) -> None
  }

  md.processor.ProviderInterface -down- md.processor.TaskInterface : "provides >"
  md.processor.ProcessorInterface -up- md.processor.TaskInterface : "processes >"

  class md.processor.Worker {
    - provider: md.processor.ProviderInterface
    - processor: md.processor.ProcessorInterface
    + run() -> None
  }

  md.processor.Worker *- -> md.processor.ProviderInterface
  md.processor.Worker *-> md.processor.ProcessorInterface
}

@enduml

PlantUML version 1.2022.1(Tue Feb 01 21:19:58 MSK 2022)
(GPL source distribution)
Java Runtime: OpenJDK Runtime Environment
JVM: OpenJDK 64-Bit Server VM
Default Encoding: UTF-8
Language: ru
Country: RU
--></g></svg>